<?xml version="1.0" encoding="UTF-8" standalone="no"?>
<!-- Created with Inkscape (http://www.inkscape.org/) -->

<svg
   version="1.1"
   id="svg1"
   width="118.72876"
   height="39.230469"
   viewBox="0 0 118.72876 39.230469"
   xmlns="http://www.w3.org/2000/svg"
   xmlns:svg="http://www.w3.org/2000/svg">
  <defs
     id="defs1">
    <clipPath
       clipPathUnits="userSpaceOnUse"
       id="clipPath349">
      <path
         d="M 0,10800.622 H 1920 V 0 H 0 Z"
         transform="translate(-1051.9998,-7216.7404)"
         id="path349" />
    </clipPath>
    <clipPath
       clipPathUnits="userSpaceOnUse"
       id="clipPath351">
      <path
         d="M 0,10800.622 H 1920 V 0 H 0 Z"
         transform="translate(-1079.6401,-7214.6931)"
         id="path351" />
    </clipPath>
    <clipPath
       clipPathUnits="userSpaceOnUse"
       id="clipPath353">
      <path
         d="M 0,10800.622 H 1920 V 0 H 0 Z"
         transform="translate(-1124.6121,-7217.5446)"
         id="path353" />
    </clipPath>
    <clipPath
       clipPathUnits="userSpaceOnUse"
       id="clipPath355">
      <path
         d="M 0,10800.622 H 1920 V 0 H 0 Z"
         id="path355" />
    </clipPath>
  </defs>
  <g
     id="layer-MC1"
     transform="translate(-1382.765,-4768.7363)">
    <path
       id="path348"
       d="M 0,0 -5.027,-10.895 H 5.027 Z M 7.076,-15.392 H -7.077 l -2.32,-4.826 h -5.529 L -2.784,5.374 H 2.784 L 14.926,-20.218 H 9.358 Z"
       style="fill:#000000;fill-opacity:1;fill-rule:nonzero;stroke:none"
       transform="matrix(1.3333333,0,0,-1.3333333,1402.6664,4778.4797)"
       clip-path="url(#clipPath349)" />
    <path
       id="path350"
       d="m 0,0 c 0.039,5.411 5.452,7.75 10.441,7.75 5.413,0 11.291,-2.083 11.291,-8.152 0,-6.508 -5.181,-7.751 -10.866,-7.751 -2.243,0 -5.878,-0.549 -5.878,-3.327 v -2.194 H 21.81 v -4.497 H -0.116 v 6.727 c 0,5.886 5.646,7.641 10.982,7.641 2.05,0 5.801,0.329 5.801,3.291 0,2.779 -2.669,4.095 -6.149,4.095 C 7.85,3.583 5.104,2.303 5.066,0 Z"
       style="fill:#000000;fill-opacity:1;fill-rule:nonzero;stroke:none"
       transform="matrix(1.3333333,0,0,-1.3333333,1439.5201,4781.2095)"
       clip-path="url(#clipPath351)" />
    <path
       id="path352"
       d="m 0,0 h -14.617 v -4.497 h 5.259 c 5.762,0 10.905,-2.23 10.866,-8.226 0,-5.813 -5.143,-8.592 -10.595,-8.592 -5.955,0 -11.06,2.011 -11.098,8.007 h 5.065 c 0,-2.815 3.403,-3.546 5.955,-3.546 2.475,0 5.608,1.096 5.608,4.131 0.038,2.888 -3.017,3.729 -5.801,3.729 H -19.605 V 4.534 H 0 Z"
       style="fill:#000000;fill-opacity:1;fill-rule:nonzero;stroke:none"
       transform="matrix(1.3333333,0,0,-1.3333333,1499.4828,4777.4075)"
       clip-path="url(#clipPath353)" />
    <path
       id="path354"
       d="m 1072.724,7194.625 h -0.958 v 29.423 h 0.958 z"
       style="fill:#000000;fill-opacity:1;fill-rule:nonzero;stroke:none"
       transform="matrix(1.3333333,0,0,-1.3333333,0,14400.8)"
       clip-path="url(#clipPath355)" />
  </g>
</svg>
