<?xml version="1.0" encoding="UTF-8" standalone="no"?>
<svg
   version="1.1"
   id="svg1"
   width="196.85687"
   height="69.958511"
   viewBox="0 0 196.85687 69.958512"
   xmlns="http://www.w3.org/2000/svg"
   xmlns:svg="http://www.w3.org/2000/svg">
  <defs
     id="defs1">
    <clipPath
       clipPathUnits="userSpaceOnUse"
       id="clipPath502">
      <path
         d="M 0,10800.622 H 1920 V 0 H 0 Z"
         transform="translate(-181.3348,-10700.873)"
         id="path502" />
    </clipPath>
    <clipPath
       clipPathUnits="userSpaceOnUse"
       id="clipPath504">
      <path
         d="M 0,10800.622 H 1920 V 0 H 0 Z"
         transform="translate(-184.0488,-10679.606)"
         id="path504" />
    </clipPath>
  </defs>
  <g
     id="layer-MC3"
     transform="translate(-111.6032,-100.918)">
    <path
       id="path498"
       d="m 0,0 h 6.331 v -23.021 h 14.348 v -5.756 H 0 Z"
       style="fill:#ffffff;fill-opacity:1;fill-rule:nonzero;stroke:none"
       transform="matrix(1.3333333,0,0,-1.3333333,111.6032,113.7844)" />
    <path
       id="path499"
       d="m 109.436,10715.262 h 6.331 v -28.777 h -6.331 z"
       style="fill:#ffffff;fill-opacity:1;fill-rule:nonzero;stroke:none"
       transform="matrix(1.3333333,0,0,-1.3333333,0,14400.8)" />
    <path
       id="path500"
       d="M 0,0 H 6.825 L 14.389,-12.169 21.953,0 h 6.825 v -28.777 h -6.29 V -9.99 L 14.389,-22.282 H 14.225 L 6.208,-10.113 V -28.777 H 0 Z"
       style="fill:#ffffff;fill-opacity:1;fill-rule:nonzero;stroke:none"
       transform="matrix(1.3333333,0,0,-1.3333333,163.94653,113.7844)" />
    <path
       id="path501"
       d="m 0,0 c 0,4.934 -3.618,9.045 -8.716,9.045 -5.097,0 -8.633,-4.029 -8.633,-9.045 0,-4.934 3.618,-9.044 8.716,-9.044 C -3.536,-9.044 0,-5.016 0,0 m -23.968,0 c 0,8.182 6.454,14.882 15.335,14.882 8.88,0 15.251,-6.618 15.251,-14.882 0,-8.181 -6.454,-14.882 -15.334,-14.882 -8.879,0 -15.252,6.618 -15.252,14.882"
       style="fill:#ffffff;fill-opacity:1;fill-rule:nonzero;stroke:none"
       transform="matrix(1.3333333,0,0,-1.3333333,241.77973,132.96933)"
       clip-path="url(#clipPath502)" />
    <path
       id="path503"
       d="m 0,0 c 2.865,6.03 6.86,11.91 11.232,17.413 -1.131,5.73 -0.603,11.911 -0.528,17.64 0,0.603 1.206,0.98 1.96,0.98 0.377,0 0.679,-0.075 0.679,-0.302 -0.075,-5.126 -0.377,-10.252 0.302,-15.377 5.352,6.181 22.238,24.952 30.002,24.952 1.658,0 3.016,-0.906 3.618,-3.091 0.227,-0.754 -0.829,-1.281 -1.658,-1.281 -0.452,0 -0.904,0.225 -0.98,0.602 -0.301,0.981 -0.904,1.358 -1.734,1.358 -6.031,0 -23.293,-18.998 -28.721,-25.783 0.905,-4.297 2.94,-9.875 8.217,-9.875 3.995,0 8.217,3.393 11.006,5.655 0.302,0.225 1.055,0.377 1.583,0.377 0.678,0 1.131,-0.227 0.528,-0.679 C 31.586,9.423 26.007,6.03 21.107,6.03 15.906,6.03 13.418,9.875 12.061,14.322 9.574,11.156 7.312,7.84 5.202,4.447 4.749,3.769 -0.226,-5.353 1.734,-5.353 3.467,-5.353 2.94,-7.162 1.432,-7.162 -2.94,-7.237 -1.131,-2.488 0,0"
       style="fill:#ffffff;fill-opacity:1;fill-rule:nonzero;stroke:none"
       transform="matrix(1.3333333,0,0,-1.3333333,245.3984,161.326)"
       clip-path="url(#clipPath504)" />
  </g>
</svg>
