<?xml version="1.0" encoding="UTF-8" standalone="no"?>
<!-- Created with Inkscape (http://www.inkscape.org/) -->

<svg
   version="1.1"
   id="svg1"
   width="21.705688"
   height="22.211914"
   viewBox="0 0 21.705688 22.211914"
   xmlns="http://www.w3.org/2000/svg"
   xmlns:svg="http://www.w3.org/2000/svg">
  <defs
     id="defs1">
    <clipPath
       clipPathUnits="userSpaceOnUse"
       id="clipPath479">
      <path
         d="M 0,10800.622 H 1920 V 0 H 0 Z"
         transform="translate(-1533.7231,-316.28776)"
         id="path479" />
    </clipPath>
    <clipPath
       clipPathUnits="userSpaceOnUse"
       id="clipPath481">
      <path
         d="M 0,10800.622 H 1920 V 0 H 0 Z"
         transform="translate(-1528.7758,-323.47576)"
         id="path481" />
    </clipPath>
    <clipPath
       clipPathUnits="userSpaceOnUse"
       id="clipPath483">
      <path
         d="M 0,10800.622 H 1920 V 0 H 0 Z"
         transform="translate(-1537.3707,-331.86151)"
         id="path483" />
    </clipPath>
  </defs>
  <g
     id="layer-MC1"
     transform="translate(-2028.8917,-13958.318)">
    <path
       id="path478"
       d="m 0,0 -4.331,6.292 -0.616,0.896 -5.026,7.301 h 2.162 L -3.747,8.585 -3.13,7.689 2.162,0 Z m 3.055,0.615 -5.454,7.924 -0.617,0.896 -3.902,5.669 -0.323,0.47 h -4.795 l 1.17,-1.699 5.188,-7.538 0.616,-0.896 4.169,-6.056 0.323,-0.47 h 4.795 z"
       style="fill:#7c7c7c;fill-opacity:1;fill-rule:nonzero;stroke:none"
       transform="matrix(1.3333333,0,0,-1.3333333,2044.9641,13979.083)"
       clip-path="url(#clipPath479)" />
    <path
       id="path480"
       d="m 0,0 0.617,-0.896 -0.731,-0.851 -5.61,-6.525 h -1.383 l 6.376,7.421 z"
       style="fill:#7c7c7c;fill-opacity:1;fill-rule:nonzero;stroke:none"
       transform="matrix(1.3333333,0,0,-1.3333333,2038.3677,13969.499)"
       clip-path="url(#clipPath481)" />
    <path
       id="path482"
       d="m 0,0 -6.047,-7.035 -0.731,-0.85 -0.617,0.896 0.732,0.851 4.096,4.767 L -1.383,0 Z"
       style="fill:#7c7c7c;fill-opacity:1;fill-rule:nonzero;stroke:none"
       transform="matrix(1.3333333,0,0,-1.3333333,2049.8275,13958.318)"
       clip-path="url(#clipPath483)" />
  </g>
</svg>
