<?xml version="1.0" encoding="UTF-8" standalone="no"?>
<!-- Created with Inkscape (http://www.inkscape.org/) -->

<svg
   version="1.1"
   id="svg1"
   width="33.534668"
   height="33.542969"
   viewBox="0 0 33.534668 33.542969"
   xmlns="http://www.w3.org/2000/svg"
   xmlns:svg="http://www.w3.org/2000/svg">
  <defs
     id="defs1">
    <clipPath
       clipPathUnits="userSpaceOnUse"
       id="clipPath459">
      <path
         d="M 0,10800.622 H 1920 V 0 H 0 Z"
         transform="translate(-1638.8763,-314.39626)"
         id="path459" />
    </clipPath>
    <clipPath
       clipPathUnits="userSpaceOnUse"
       id="clipPath461">
      <path
         d="M 0,10800.622 H 1920 V 0 H 0 Z"
         transform="translate(-1644.5355,-322.22326)"
         id="path461" />
    </clipPath>
  </defs>
  <g
     id="layer-MC1"
     transform="translate(-2168.0962,-13951.53)">
    <path
       id="path458"
       d="M 0,0 C -2.11,0 -4.069,0.624 -5.711,1.705 L -9.7,0.434 -8.405,4.26 c -1.243,1.7 -1.977,3.787 -1.977,6.041 0,0.335 0.017,0.671 0.052,1 0.509,5.214 4.948,9.301 10.33,9.301 5.451,0 9.931,-4.191 10.347,-9.497 0.023,-0.266 0.035,-0.532 0.035,-0.804 C 10.382,4.619 5.723,0 0,0 M 12.342,10.613 C 12.174,17.238 6.717,22.556 0,22.556 c -6.636,0 -12.047,-5.197 -12.336,-11.717 -0.006,-0.18 -0.011,-0.359 -0.011,-0.538 0,-2.318 0.647,-4.48 1.769,-6.33 l -2.226,-6.572 6.839,2.173 c 1.768,-0.971 3.803,-1.526 5.965,-1.526 6.821,0 12.347,5.486 12.347,12.255 0,0.104 0,0.208 -0.005,0.312"
       style="fill:#7c7c7c;fill-opacity:1;fill-rule:evenodd;stroke:none"
       transform="matrix(1.3333333,0,0,-1.3333333,2185.1683,13981.605)"
       clip-path="url(#clipPath459)" />
    <path
       id="path460"
       d="m 0,0 c -0.306,0.15 -1.792,0.879 -2.069,0.977 -0.278,0.104 -0.48,0.15 -0.683,-0.15 -0.202,-0.301 -0.786,-0.977 -0.959,-1.174 -0.18,-0.202 -0.353,-0.225 -0.659,-0.075 -0.301,0.15 -1.278,0.463 -2.434,1.491 -0.896,0.792 -1.509,1.775 -1.682,2.076 -0.173,0.3 -0.017,0.462 0.133,0.612 0.139,0.139 0.301,0.353 0.457,0.526 0.04,0.052 0.075,0.099 0.109,0.145 0.07,0.11 0.122,0.214 0.191,0.358 0.104,0.203 0.052,0.376 -0.023,0.526 -0.075,0.151 -0.682,1.631 -0.936,2.232 -0.249,0.601 -0.503,0.497 -0.682,0.497 -0.174,0 -0.376,0.029 -0.578,0.029 -0.203,0 -0.532,-0.075 -0.81,-0.376 -0.277,-0.301 -1.058,-1.029 -1.058,-2.509 0,-0.347 0.064,-0.693 0.157,-1.023 0.306,-1.058 0.965,-1.931 1.08,-2.081 0.151,-0.197 2.093,-3.33 5.168,-4.538 3.081,-1.196 3.081,-0.798 3.636,-0.745 0.555,0.046 1.792,0.722 2.041,1.427 0.254,0.7 0.254,1.301 0.179,1.428 C 0.503,-0.225 0.3,-0.15 0,0"
       style="fill:#7c7c7c;fill-opacity:1;fill-rule:evenodd;stroke:none"
       transform="matrix(1.3333333,0,0,-1.3333333,2192.714,13971.169)"
       clip-path="url(#clipPath461)" />
  </g>
</svg>
